<?xml version="1.0" encoding="UTF-8"?>
<svg id="Layer_2" data-name="Layer 2" xmlns="http://www.w3.org/2000/svg" viewBox="0 0 716.18 650.66">
  <defs>
    <style>
      .cls-1 {
        fill: #001070;
      }

      .cls-2 {
        letter-spacing: 0em;
      }

      .cls-3 {
        letter-spacing: 0em;
      }

      .cls-4 {
        letter-spacing: 0em;
      }

      .cls-5 {
        letter-spacing: 0em;
      }

      .cls-6 {
        fill: #0072d9;
      }

      .cls-7 {
        letter-spacing: 0em;
      }

      .cls-8, .cls-9 {
        font-family: MyriadPro-Regular, 'Myriad Pro';
        font-size: 13.25px;
        isolation: isolate;
      }

      .cls-8, .cls-10 {
        fill: #002684;
      }

      .cls-11 {
        letter-spacing: -.01em;
      }

      .cls-12 {
        fill: #fff;
      }

      .cls-13 {
        fill: #b7ff08;
      }

      .cls-14 {
        letter-spacing: .01em;
      }

      .cls-15 {
        fill: #006ad9;
      }

      .cls-16, .cls-9 {
        fill: #cfedff;
      }

      .cls-17 {
        fill: #001170;
      }

      .cls-18, .cls-19 {
        fill: none;
      }

      .cls-20 {
        letter-spacing: 0em;
      }

      .cls-21 {
        letter-spacing: -.02em;
      }

      .cls-22 {
        letter-spacing: 0em;
      }

      .cls-23 {
        letter-spacing: .01em;
      }

      .cls-19 {
        stroke: #fff;
        stroke-miterlimit: 10;
        stroke-width: 2.16px;
      }

      .cls-24 {
        letter-spacing: 0em;
      }

      .cls-25 {
        letter-spacing: 0em;
      }

      .cls-26 {
        letter-spacing: 0em;
      }
    </style>
  </defs>
  <g id="a">
    <g>
      <polyline class="cls-16" points="682.31 437.81 360.23 581.04 33.7 438.49 21.58 501.66 360.18 649.48 694.57 500.78 682.31 437.81"/>
      <polygon class="cls-19" points="359.02 168.76 648.77 265.51 694.57 500.78 360.18 649.48 21.58 501.66 66.71 266.35 359.02 168.76"/>
      <rect class="cls-18" x="101.51" y="377.24" width="17.37" height="160.73" transform="translate(-353.04 374.18) rotate(-66.25)"/>
      <rect class="cls-18" x="93.6" y="441.07" width="17.37" height="160.73" transform="translate(-416.19 405.07) rotate(-66.25)"/>
      <text class="cls-8" transform="translate(50.18 499.6) rotate(23.75)"><tspan class="cls-14" x="0" y="0">I</tspan><tspan x="3.3" y="0">nf</tspan><tspan class="cls-7" x="14.52" y="0">r</tspan><tspan class="cls-5" x="18.79" y="0">astru</tspan><tspan class="cls-23" x="46.44" y="0">c</tspan><tspan x="52.55" y="0">tu</tspan><tspan class="cls-3" x="64.23" y="0">r</tspan><tspan class="cls-4" x="68.44" y="0">e</tspan></text>
      <polygon class="cls-19" points="359.04 88.52 655.9 187.65 702.82 428.69 360.23 581.04 13.33 429.6 59.56 188.51 359.04 88.52"/>
      <path class="cls-6" d="M25.73,364.91l-12.4,64.69,20.37,8.89,12.41-64.69-20.37-8.89M690.27,364.23l-20.51,9.12,12.55,64.46,20.51-9.12-12.55-64.46"/>
      <polyline class="cls-10" points="359.08 1.14 49.08 104.64 1.22 354.21 25.73 364.91 59.56 188.51 359.04 88.52 655.9 187.65 690.27 364.23 714.95 353.26 666.37 103.75 359.08 1.14"/>
      <polyline class="cls-17" points="359.04 88.52 59.56 188.51 25.73 364.91 46.1 373.8 66.71 266.35 359.02 168.76 648.77 265.51 669.76 373.35 690.27 364.23 655.9 187.65 359.04 88.52"/>
      <polyline class="cls-1" points="359.02 168.76 66.71 266.35 46.1 373.8 360.31 510.97 669.76 373.35 648.77 265.51 359.02 168.76"/>
      <rect class="cls-18" x="70.98" y="292.3" width="17.37" height="160.73" transform="translate(-293.53 295.5) rotate(-66.25)"/>
      <text class="cls-9" transform="translate(42.36 357.33) rotate(23.75)"><tspan class="cls-24" x="0" y="0">G</tspan><tspan class="cls-22" x="8.63" y="0">o</tspan><tspan class="cls-20" x="15.81" y="0">v</tspan><tspan x="22.05" y="0">e</tspan><tspan class="cls-25" x="28.69" y="0">r</tspan><tspan x="33.07" y="0">nan</tspan><tspan class="cls-2" x="54.17" y="0">c</tspan><tspan x="60.02" y="0">e</tspan></text>
      <g>
        <path class="cls-12" d="M118.46,127.93h10.68l7.03,19.24c.87,2.56,1.63,5.33,2.49,8h.27c.87-2.67,1.6-5.44,2.47-8l6.81-19.24h10.68v43.3h-8.91v-15.89c0-4.22.79-10.52,1.25-14.71h-.27l-3.55,10.25-6.12,16.59h-5.43l-6.13-16.59-3.46-10.25h-.27c.46,4.19,1.25,10.49,1.25,14.71v15.89h-8.78v-43.3h-.01Z"/>
        <path class="cls-12" d="M183.51,127.93h11.71l13.6,43.3h-10.36l-5.66-21.93c-1.2-4.33-2.36-9.45-3.52-13.97h-.27c-1.05,4.57-2.2,9.64-3.41,13.97l-5.69,21.93h-10.01l13.61-43.3ZM178.88,153.31h20.83v7.61h-20.83v-7.61Z"/>
        <path class="cls-12" d="M219.82,127.93h9.79v17.69h.24l12.91-17.69h10.76l-13.1,17.28,15.51,26.02h-10.74l-10.53-18.29-5.05,6.69v11.6h-9.79v-43.3h0Z"/>
        <path class="cls-12" d="M266.92,127.93h27.13v8.21h-17.34v8.69h14.76v8.21h-14.76v9.98h18.01v8.21h-27.8v-43.3h0Z"/>
        <path class="cls-12" d="M278.5,211.74c1.03-2.07,1.55-3.95,1.55-5.65,0-3.39-.99-6.21-2.96-8.47s-4.38-4.09-7.2-5.51c-2.82-1.41-5.79-2.4-8.89-2.96-3.11-.56-5.79-.85-8.05-.85-5.46,0-10.59.8-15.39,2.4-4.8,1.6-8.94,3.86-12.42,6.78-3.49,2.92-6.21,6.45-8.19,10.59-1.98,4.14-2.96,8.75-2.96,13.84,0,5.65,1.36,10.83,4.09,15.53,2.73,4.71,5.69,9.23,8.89,13.55l1.69,2.26c2.44,3.58,4.84,6.78,7.2,9.6,2.35,2.82,4.42,5.65,6.21,8.47,1.79,2.82,3.2,5.74,4.24,8.75,1.03,3.01,1.55,6.31,1.55,9.88,0,8.29-2.59,14.36-7.77,18.21-5.18,3.86-10.97,5.79-17.37,5.79-5.65,0-10.5-1.08-14.54-3.25-4.05-2.16-6.07-4.56-6.07-7.2,0-.56.85-1.6,2.54-3.11,1.69-1.5,2.54-3.86,2.54-7.06,0-2.26-.8-4.09-2.4-5.51-1.6-1.41-3.44-2.12-5.51-2.12-3.2,0-5.65,1.32-7.34,3.95-1.69,2.64-2.54,5.27-2.54,7.91,0,3.95,1.6,7.53,4.8,10.73,4.14,3.77,8.56,6.35,13.27,7.77,4.7,1.41,9.98,2.12,15.81,2.12,12.99,0,23.44-3.49,31.34-10.45s11.86-16.38,11.86-28.24c0-6.59-1.69-12.66-5.08-18.21-3.39-5.55-6.97-10.77-10.73-15.67-1.88-2.44-3.91-5.03-6.07-7.76-2.17-2.73-4.14-5.51-5.93-8.33-1.79-2.82-3.3-5.74-4.52-8.75-1.23-3.01-1.83-6.11-1.83-9.32,0-6.21,2.16-10.92,6.49-14.12,4.33-3.2,9.22-4.8,14.68-4.8,3.39,0,6.45.61,9.18,1.84,2.73,1.23,4.09,2.68,4.09,4.38,0,.38-.33,1.32-.99,2.82-.66,1.51-.99,3.39-.99,5.65,0,2.64.75,4.57,2.26,5.79,1.5,1.23,3.29,1.84,5.37,1.84,3.02-.01,5.05-1.04,6.09-3.11h0Z"/>
        <path class="cls-12" d="M397.26,287.08c-2.26,3.89-4.76,7.55-7.48,10.96-2.73,3.42-5.55,6.27-8.47,8.55s-5.7,3.41-8.33,3.41-4.28-.9-4.94-2.69-.99-3.54-.99-5.24c0-3.21.66-7.08,1.98-11.6,1.32-4.53,2.92-9.29,4.8-14.29s3.86-10,5.93-15,3.95-9.67,5.65-14.01c1.88-4.91,3.57-10.24,5.08-15.99,1.5-5.75,2.26-11.37,2.26-16.84,0-8.49-2.12-14.9-6.35-19.24-4.24-4.34-10.31-6.51-18.21-6.51-5.08,0-9.98,1.65-14.68,4.94-4.71,3.3-9.08,7.3-13.13,12-4.05,4.71-7.76,9.65-11.15,14.82-3.39,5.18-6.21,9.74-8.47,13.69l35.86-110.41c-6.78,1.13-13.65,1.98-20.61,2.54-4.33.38-8.57.66-12.71.85-4.14.19-8.38.28-12.71.28l-.56,2.26c5.46,0,10.12.56,13.98,1.69,3.86,1.13,5.79,3.95,5.79,8.47,0,1.51-.14,2.92-.42,4.24-.28,1.32-.61,2.45-.99,3.39l-51.39,167.16h22.31l16.09-50.1c.94-2.83,2.35-6.55,4.24-11.18,1.88-4.62,4.14-9.53,6.78-14.72,2.63-5.19,5.51-10.38,8.61-15.57,3.11-5.19,6.35-9.9,9.74-14.15,3.39-4.24,6.82-7.69,10.31-10.33,3.48-2.64,6.92-3.96,10.31-3.96,3.95,0,6.54,1.32,7.77,3.96,1.22,2.64,1.83,5.38,1.83,8.21,0,3.96-.85,8.3-2.54,13.02-1.88,5.66-3.62,10.47-5.22,14.44-1.6,3.96-3.15,7.92-4.66,11.89-1.51,3.96-3.2,8.35-5.08,13.16s-4.05,10.8-6.5,17.97c-1.13,3.21-1.98,6.47-2.54,9.77s-.85,6.27-.85,8.91c0,6.04,1.6,11.14,4.8,15.28,3.2,4.15,8,6.23,14.4,6.23,4.89,0,9.36-1.51,13.41-4.52,4.04-3.01,7.67-6.64,10.87-10.87,3.2-4.24,5.97-8.61,8.33-13.13,2.35-4.52,4.19-8.28,5.51-11.29l-2.26-1.13c-1.36,3.23-3.14,6.79-5.4,10.68h0Z"/>
        <path class="cls-12" d="M444.78,215.6c-4.71,12.74-9.65,24.22-14.82,34.43-5.18,10.21-9.46,20.85-12.85,31.9-1.69,5.62-2.54,10.59-2.54,14.9,0,5.25,1.46,9.94,4.38,14.06s7.48,6.18,13.7,6.18c4.52,0,8.7-1.41,12.56-4.24,3.86-2.82,7.34-6.3,10.45-10.45,3.11-4.14,5.83-8.42,8.19-12.85,2.35-4.42,4.38-8.33,6.07-11.72l-2.26-1.13c-1.51,2.96-3.39,6.34-5.65,10.13s-4.76,7.4-7.48,10.83c-2.73,3.42-5.51,6.3-8.33,8.61s-5.55,3.47-8.19,3.47c-3.58,0-5.36-2.15-5.36-6.46,0-3.19.61-6.65,1.83-10.4,1.22-3.75,2.49-7.21,3.81-10.4,3.76-9.56,7.81-19.06,12.14-28.53,4.33-9.46,8-18.97,11.01-28.53.94-2.81,1.64-5.62,2.12-8.43.47-2.81.71-5.53.71-8.15,0-5.06-1.27-9.74-3.81-14.05s-7.02-6.46-13.41-6.46c-3.95,0-7.67,1.27-11.15,3.81-3.48,2.54-6.73,5.7-9.74,9.46-3.01,3.77-5.74,7.81-8.19,12.14-2.45,4.33-4.62,8.29-6.49,11.86l2.26,1.41c1.7-2.96,3.62-6.24,5.79-9.85,2.16-3.6,4.42-7.02,6.78-10.26,2.35-3.23,4.84-5.92,7.48-8.04,2.63-2.13,5.18-3.19,7.62-3.19,3.95,0,5.93,2.62,5.93,7.87,0,2.06-.28,4.17-.85,6.32-.58,2.15-1.15,4.07-1.71,5.76h0Z"/>
        <path class="cls-12" d="M467.37,166.56c4.14,0,7.48-1.36,10.02-4.09,2.54-2.73,3.81-5.88,3.81-9.46,0-3.76-1.27-6.92-3.81-9.46-2.54-2.54-5.79-3.81-9.74-3.81s-7.2,1.32-9.74,3.95c-2.54,2.64-3.81,5.84-3.81,9.6,0,3.39,1.27,6.45,3.81,9.18s5.69,4.09,9.46,4.09h0Z"/>
        <path class="cls-12" d="M575.99,281.2l25.13-81.6h20.9l1.41-4.24h-20.9l12.71-41.51h-20.33l-14.4,41.51h-49.87l7.62-27.39c1.13-3.95,2.54-8.23,4.23-12.85,1.7-4.61,3.81-8.89,6.35-12.85s5.51-7.24,8.89-9.88c3.39-2.63,7.34-3.95,11.86-3.95,1.7,0,3.2.38,4.52,1.13s1.98,1.98,1.98,3.67c0,.38-.24,1.23-.71,2.54-.47,1.32-.71,2.92-.71,4.8,0,2.64.85,4.8,2.54,6.49s3.67,2.54,5.93,2.54c3.2,0,5.46-.99,6.78-2.96,1.32-1.98,1.98-4.09,1.98-6.35,0-5.46-2.12-9.5-6.35-12.14-4.24-2.63-8.8-3.95-13.7-3.95-9.79,0-18.12,2.02-24.99,6.07s-12.71,9.32-17.51,15.81-8.75,13.88-11.86,22.17-5.79,16.57-8.05,24.85l-.56,2.26h-21.18l-1.41,4.24h21.18l-35.01,133.4c-1.32,4.72-2.92,10.15-4.8,16.29-1.88,6.13-4.19,11.99-6.92,17.56-2.73,5.56-5.93,10.28-9.6,14.16-3.67,3.87-8.05,5.81-13.13,5.81-1.88,0-3.67-.43-5.37-1.29-1.69-.86-2.54-2.34-2.54-4.43,0-.38.33-1.34.99-2.86.66-1.53.99-3.15.99-4.87,0-2.86-.8-4.96-2.4-6.29-1.6-1.34-3.53-2-5.79-2-3.2,0-5.51,1.17-6.92,3.53-1.41,2.35-2.12,4.56-2.12,6.64,0,3.2.71,5.79,2.12,7.77,1.41,1.98,3.25,3.57,5.51,4.8,2.26,1.22,4.66,2.07,7.2,2.54,2.54.47,4.94.71,7.2.71,9.04,0,16.9-2.21,23.58-6.64,6.68-4.43,12.42-10.04,17.22-16.82,4.8-6.79,8.71-14.19,11.72-22.2,3.01-8.01,5.46-15.51,7.34-22.48,3.01-11.12,5.83-21.82,8.47-32.09,2.63-10.28,5.27-20.46,7.91-30.54,2.63-10.09,5.27-20.07,7.91-29.98,2.63-9.9,5.37-20.12,8.19-30.68h49.87l-22.59,73.87c-.94,3.21-1.74,6.61-2.4,10.19-.66,3.59-.99,7.08-.99,10.47,0,6.23,1.46,11.65,4.38,16.28,2.92,4.62,8.05,6.94,15.39,6.94,4.89,0,9.41-1.69,13.55-5.08,4.14-3.39,7.81-7.34,11.01-11.86s5.88-8.99,8.05-13.41c2.16-4.42,3.71-7.77,4.66-10.02l-2.26-1.13c-1.32,2.8-3.11,6.16-5.37,10.08-2.26,3.92-4.71,7.65-7.34,11.2-2.64,3.55-5.41,6.58-8.33,9.1-2.92,2.52-5.6,3.78-8.05,3.78-2.64,0-4.43-.99-5.37-2.96-.94-1.98-1.41-4.09-1.41-6.35,0-3.2.42-6.54,1.27-10.02.86-3.55,1.75-6.71,2.7-9.53h0Z"/>
      </g>
      <g>
        <g>
          <rect class="cls-13" x="213.7" y="337.19" width="387.13" height="35.33"/>
          <path d="M237.36,348.07h4.77l4.54,13.89h-4.18l-1.7-6.75c-.37-1.32-.73-3.01-1.1-4.4h-.09c-.32,1.41-.69,3.08-1.06,4.4l-1.7,6.75h-4.04l4.56-13.89h0ZM236.07,356.17h7.3v2.84h-7.3v-2.84Z"/>
          <path d="M248.37,355.12c0-4.66,3.44-7.31,7.21-7.31,1.97,0,3.58.85,4.64,1.84l-2.07,2.35c-.73-.6-1.47-1.03-2.48-1.03-1.74,0-3.26,1.5-3.26,4.02s1.29,4.06,3.21,4.06c1.15,0,2.07-.56,2.71-1.2l2.07,2.31c-1.26,1.37-2.98,2.05-4.91,2.05-3.81,0-7.12-2.35-7.12-7.09h0Z"/>
          <path d="M262.74,355.12c0-4.66,3.44-7.31,7.21-7.31,1.97,0,3.58.85,4.64,1.84l-2.07,2.35c-.73-.6-1.47-1.03-2.48-1.03-1.74,0-3.26,1.5-3.26,4.02s1.29,4.06,3.21,4.06c1.15,0,2.07-.56,2.71-1.2l2.07,2.31c-1.26,1.37-2.98,2.05-4.91,2.05-3.81,0-7.12-2.35-7.12-7.09h0Z"/>
          <path d="M277.11,354.95c0-4.57,2.8-7.13,6.93-7.13s6.93,2.58,6.93,7.13-2.8,7.26-6.93,7.26-6.93-2.69-6.93-7.26ZM286.93,354.95c0-2.52-1.1-3.97-2.89-3.97s-2.89,1.45-2.89,3.97,1.1,4.1,2.89,4.1,2.89-1.58,2.89-4.1Z"/>
          <path d="M294.46,355.25v-7.18h3.95v7.61c0,2.48.69,3.38,2.25,3.38s2.29-.9,2.29-3.38v-7.61h3.81v7.18c0,4.74-1.93,6.96-6.1,6.96s-6.2-2.22-6.2-6.96Z"/>
          <path d="M310.89,348.07h4.04l3.3,6.2,1.42,3.12h.09c-.18-1.5-.5-3.59-.5-5.3v-4.02h3.76v13.89h-4.04l-3.3-6.22-1.42-3.1h-.09c.18,1.58.5,3.59.5,5.3v4.02h-3.76v-13.89Z"/>
          <path d="M330.08,351.15h-3.95v-3.08h11.84v3.08h-3.95v10.81h-3.95v-10.81h.01Z"/>
          <path d="M343.76,348.07h4.77l4.54,13.89h-4.18l-1.7-6.75c-.37-1.32-.73-3.01-1.1-4.4h-.09c-.32,1.41-.69,3.08-1.06,4.4l-1.7,6.75h-4.04l4.56-13.89ZM342.47,356.17h7.3v2.84h-7.3v-2.84Z"/>
          <path d="M355.42,348.07h5.37c3.12,0,5.65.73,5.65,3.46,0,1.2-.73,2.56-1.88,2.99v.09c1.42.38,2.57,1.41,2.57,3.25,0,2.86-2.66,4.1-5.88,4.1h-5.83v-13.89h0ZM360.7,353.5c1.29,0,1.88-.56,1.88-1.41s-.6-1.2-1.88-1.2h-1.33v2.61h1.33ZM360.97,359.14c1.56,0,2.29-.51,2.29-1.54s-.73-1.41-2.29-1.41h-1.61v2.95h1.61Z"/>
          <path d="M370.38,348.07h3.95v10.81h5.65v3.08h-9.59v-13.89h-.01Z"/>
          <path d="M383.46,348.07h9.64v3.08h-5.69v2.18h4.87v3.08h-4.87v2.48h5.92v3.08h-9.87v-13.9h0Z"/>
          <path d="M405.5,351.15h-3.95v-3.08h11.84v3.08h-3.95v10.81h-3.95v-10.81h.01Z"/>
          <path d="M416.51,348.07h9.64v3.08h-5.69v2.18h4.87v3.08h-4.87v2.48h5.92v3.08h-9.87v-13.9h0Z"/>
          <path d="M429.55,355.12c0-4.66,3.44-7.31,7.21-7.31,1.97,0,3.58.85,4.64,1.84l-2.07,2.35c-.73-.6-1.47-1.03-2.48-1.03-1.74,0-3.26,1.5-3.26,4.02s1.29,4.06,3.21,4.06c1.15,0,2.07-.56,2.71-1.2l2.07,2.31c-1.26,1.37-2.98,2.05-4.91,2.05-3.82,0-7.12-2.35-7.12-7.09h0Z"/>
          <path d="M444.56,348.07h3.95v5.17h4.45v-5.17h3.95v13.89h-3.95v-5.51h-4.45v5.51h-3.95v-13.89Z"/>
          <path d="M466.64,348.07h5.37c3.12,0,5.65.73,5.65,3.46,0,1.2-.73,2.56-1.88,2.99v.09c1.42.38,2.57,1.41,2.57,3.25,0,2.86-2.66,4.1-5.88,4.1h-5.83v-13.89h0ZM471.91,353.5c1.29,0,1.88-.56,1.88-1.41s-.6-1.2-1.88-1.2h-1.33v2.61h1.33ZM472.19,359.14c1.56,0,2.29-.51,2.29-1.54s-.73-1.41-2.29-1.41h-1.61v2.95h1.61Z"/>
          <path d="M484.22,357.17l-4.5-9.1h4.22l1.1,2.91c.37,1.05.73,2.01,1.12,3.1h.09c.39-1.09.78-2.05,1.17-3.1l1.1-2.91h4.13l-4.5,9.1v4.79h-3.95v-4.79h.02Z"/>
          <path d="M500.51,348.07h4.41c4.54,0,7.67,1.97,7.67,6.88s-3.12,7.01-7.44,7.01h-4.64v-13.89h0ZM504.69,359.01c2.16,0,3.86-.81,3.86-4.06s-1.7-3.93-3.86-3.93h-.23v7.99h.23Z"/>
          <path d="M516.16,348.07h9.64v3.08h-5.69v2.18h4.87v3.08h-4.87v2.48h5.92v3.08h-9.87v-13.9h0Z"/>
          <path d="M528.93,360.22l2.25-2.52c1.06.79,2.39,1.35,3.49,1.35,1.19,0,1.7-.36,1.7-.98,0-.66-.76-.88-2.02-1.35l-1.86-.73c-1.61-.6-3.01-1.86-3.01-3.87,0-2.37,2.29-4.31,5.55-4.31,1.7,0,3.58.6,4.96,1.86l-1.97,2.31c-1.01-.66-1.88-1-2.98-1-.96,0-1.56.32-1.56.94,0,.66.85.9,2.2,1.39l1.81.66c1.86.68,2.92,1.88,2.92,3.8,0,2.35-2.11,4.44-5.83,4.44-1.89,0-4.05-.64-5.65-1.99Z"/>
          <path d="M543.71,348.07h3.95v13.89h-3.95v-13.89Z"/>
          <path d="M551.23,355.12c0-4.66,3.44-7.31,7.44-7.31,2.2,0,3.81.85,4.87,1.84l-2.07,2.35c-.73-.6-1.47-1.03-2.66-1.03-2.02,0-3.53,1.5-3.53,4.02s1.24,4.06,3.9,4.06c.41,0,.87-.09,1.15-.26v-1.92h-2.2v-2.99h5.69v6.62c-1.06.94-2.94,1.71-5.05,1.71-4.19,0-7.54-2.35-7.54-7.09h0Z"/>
          <path d="M567.62,348.07h4.04l3.3,6.2,1.42,3.12h.09c-.18-1.5-.5-3.59-.5-5.3v-4.02h3.76v13.89h-4.04l-3.3-6.22-1.42-3.1h-.09c.18,1.58.5,3.59.5,5.3v4.02h-3.76v-13.89Z"/>
        </g>
        <path class="cls-12" d="M425.69,380.68c1.46.17,5.92-1.23,6.37-6.65.01-.22.03-.44.03-.67,0-2.86-.8-4.96-2.4-6.29-1.6-1.34-3.53-2-5.79-2-3.2,0-5.51,1.17-6.92,3.53-1.13,1.89-1.79,3.68-2.01,5.39-.67,7.47,6.57,6.21,10.72,6.69Z"/>
      </g>
      <polyline class="cls-15" points="669.76 373.35 360.31 510.97 46.1 373.8 33.7 438.49 360.23 581.04 682.31 437.81 669.76 373.35"/>
      <text class="cls-9" transform="translate(47 430.89) rotate(23.75)"><tspan class="cls-11" x="0" y="0">C</tspan><tspan x="7.54" y="0">ommuni</tspan><tspan class="cls-26" x="54.67" y="0">t</tspan><tspan x="59.17" y="0">y + </tspan><tspan class="cls-21" x="78.93" y="0">P</tspan><tspan class="cls-22" x="85.65" y="0">o</tspan><tspan class="cls-20" x="92.83" y="0">w</tspan><tspan class="cls-4" x="102.45" y="0">er</tspan></text>
      <polygon class="cls-19" points="359.08 1.14 666.37 103.75 714.95 353.26 360.31 510.97 1.22 354.21 49.08 104.64 359.08 1.14"/>
    </g>
  </g>
</svg>
