<?xml version="1.0" encoding="UTF-8"?>
<svg xmlns="http://www.w3.org/2000/svg" viewBox="0 0 716.18 650.66">
  <defs>
    <style>
      .cls-1 {
        letter-spacing: 0em;
      }

      .cls-2 {
        font-family: SourceSansRoman-Bold, 'Source Sans Variable';
        font-size: 66.44px;
        font-variation-settings: 'wght' 700;
      }

      .cls-2, .cls-3, .cls-4 {
        fill: #fff;
      }

      .cls-2, .cls-5, .cls-6 {
        font-weight: 700;
      }

      .cls-3 {
        font-family: FONTSPRINGDEMO-BaskervillePosterPTItalic, 'FONTSPRING DEMO - Baskerville Poster PT';
        font-size: 282.37px;
        font-style: italic;
        font-weight: 900;
      }

      .cls-7 {
        letter-spacing: .03em;
      }

      .cls-8 {
        letter-spacing: .03em;
      }

      .cls-9 {
        letter-spacing: -.02em;
      }

      .cls-10 {
        letter-spacing: .04em;
      }

      .cls-11 {
        letter-spacing: .03em;
      }

      .cls-12 {
        letter-spacing: 0em;
      }

      .cls-13 {
        letter-spacing: .09em;
      }

      .cls-14 {
        letter-spacing: .04em;
      }

      .cls-15 {
        letter-spacing: -.03em;
      }

      .cls-16 {
        letter-spacing: 0em;
      }

      .cls-17 {
        font-family: SourceSansRoman-Black, 'Source Sans Variable';
        font-size: 21.36px;
        font-variation-settings: 'wght' 900;
        font-weight: 800;
      }

      .cls-18 {
        letter-spacing: .03em;
      }

      .cls-19 {
        letter-spacing: .03em;
      }

      .cls-20 {
        fill: #b7ff08;
      }

      .cls-21 {
        letter-spacing: 0em;
      }

      .cls-22 {
        letter-spacing: .03em;
      }

      .cls-23 {
        letter-spacing: .04em;
      }

      .cls-24 {
        letter-spacing: .02em;
      }

      .cls-25 {
        letter-spacing: .02em;
      }

      .cls-26 {
        letter-spacing: 0em;
      }

      .cls-5, .cls-6 {
        font-family: JetBrainsMono-ExtraBold, 'JetBrains Mono';
        font-size: 13.25px;
      }

      .cls-5, .cls-27 {
        fill: #cfedff;
      }

      .cls-28 {
        letter-spacing: .04em;
      }

      .cls-29 {
        letter-spacing: .01em;
      }

      .cls-30 {
        letter-spacing: .04em;
      }

      .cls-31 {
        letter-spacing: .04em;
      }

      .cls-32 {
        letter-spacing: .02em;
      }

      .cls-33 {
        isolation: isolate;
      }

      .cls-34 {
        letter-spacing: .02em;
      }

      .cls-35 {
        letter-spacing: .02em;
      }

      .cls-36 {
        letter-spacing: 0em;
      }

      .cls-37 {
        letter-spacing: .01em;
      }

      .cls-38 {
        fill: #0072d9;
      }

      .cls-38, .cls-39, .cls-27 {
        mix-blend-mode: multiply;
      }

      .cls-40 {
        letter-spacing: .03em;
      }

      .cls-41 {
        letter-spacing: .04em;
      }

      .cls-42 {
        letter-spacing: .02em;
      }

      .cls-43 {
        letter-spacing: 0em;
      }

      .cls-44 {
        letter-spacing: .03em;
      }

      .cls-45 {
        letter-spacing: 0em;
      }

      .cls-46 {
        letter-spacing: -.04em;
      }

      .cls-47 {
        letter-spacing: .04em;
      }

      .cls-48 {
        letter-spacing: .1em;
      }

      .cls-49 {
        letter-spacing: -.05em;
      }

      .cls-50 {
        letter-spacing: .01em;
      }

      .cls-51 {
        letter-spacing: .02em;
      }

      .cls-52 {
        letter-spacing: .03em;
      }

      .cls-53 {
        letter-spacing: 0em;
      }

      .cls-54 {
        letter-spacing: .03em;
      }

      .cls-55 {
        letter-spacing: .01em;
      }

      .cls-56 {
        fill: none;
        stroke: #fff;
        stroke-miterlimit: 10;
        stroke-width: 2.16px;
      }

      .cls-57 {
        letter-spacing: .04em;
      }

      .cls-39, .cls-6 {
        fill: #002684;
      }

      .cls-58 {
        letter-spacing: 0em;
      }

      .cls-59 {
        letter-spacing: .01em;
      }

      .cls-60 {
        letter-spacing: .05em;
      }

      .cls-61 {
        letter-spacing: .02em;
      }

      .cls-62 {
        letter-spacing: 0em;
      }

      .cls-63 {
        letter-spacing: .03em;
      }

      .cls-64 {
        letter-spacing: .1em;
      }

      .cls-65 {
        letter-spacing: .02em;
      }

      .cls-66 {
        letter-spacing: .04em;
      }

      .cls-67 {
        letter-spacing: 0em;
      }
    </style>
  </defs>
  <g class="cls-33">
    <g id="Layer_1" data-name="Layer 1">
      <g>
        <polygon class="cls-27" points="359.02 168.75 648.77 265.51 694.57 500.78 360.18 649.48 21.59 501.66 66.71 266.34 359.02 168.75"/>
        <polygon class="cls-56" points="359.02 168.75 648.77 265.51 694.57 500.78 360.18 649.48 21.59 501.66 66.71 266.34 359.02 168.75"/>
        <polygon class="cls-38" points="359.05 88.52 655.91 187.65 702.83 428.69 360.24 581.04 13.34 429.6 59.57 188.51 359.05 88.52"/>
        <text class="cls-5" transform="translate(46.53 430.67) rotate(23.75)"><tspan class="cls-34" x="0" y="0">C</tspan><tspan class="cls-22" x="8.16" y="0">o</tspan><tspan class="cls-31" x="16.47" y="0">m</tspan><tspan class="cls-18" x="25.02" y="0">m</tspan><tspan class="cls-24" x="33.34" y="0">u</tspan><tspan class="cls-12" x="41.5" y="0">n</tspan><tspan class="cls-46" x="49.48" y="0">i</tspan><tspan class="cls-11" x="56.92" y="0">t</tspan><tspan class="cls-50" x="65.24" y="0">y + </tspan><tspan class="cls-34" x="97.57" y="0">P</tspan><tspan class="cls-19" x="105.73" y="0">ow</tspan><tspan class="cls-21" x="122.3" y="0">e</tspan><tspan class="cls-50" x="130.26" y="0">r</tspan></text>
        <text class="cls-6" transform="translate(50 499.51) rotate(23.75)"><tspan class="cls-26" x="0" y="0">I</tspan><tspan class="cls-42" x="7.91" y="0">n</tspan><tspan class="cls-26" x="16.06" y="0">f</tspan><tspan class="cls-29" x="23.97" y="0">r</tspan><tspan class="cls-37" x="32.11" y="0">a</tspan><tspan class="cls-52" x="40.21" y="0">s</tspan><tspan class="cls-53" x="48.5" y="0">t</tspan><tspan class="cls-25" x="56.46" y="0">r</tspan><tspan class="cls-58" x="64.67" y="0">u</tspan><tspan class="cls-63" x="72.72" y="0">c</tspan><tspan class="cls-36" x="81.06" y="0">t</tspan><tspan class="cls-45" x="89.11" y="0">u</tspan><tspan class="cls-65" x="97.13" y="0">r</tspan><tspan class="cls-50" x="105.36" y="0">e</tspan></text>
        <polygon class="cls-56" points="359.05 88.52 655.91 187.65 702.83 428.69 360.24 581.04 13.34 429.6 59.57 188.51 359.05 88.52"/>
        <polygon class="cls-39" points="359.09 1.14 666.38 103.75 714.95 353.26 360.32 510.97 1.22 354.2 49.08 104.64 359.09 1.14"/>
        <polygon class="cls-56" points="359.09 1.14 666.38 103.75 714.95 353.26 360.32 510.97 1.22 354.2 49.08 104.64 359.09 1.14"/>
        <text class="cls-5" transform="translate(42.29 357.29) rotate(23.75)"><tspan class="cls-59" x="0" y="0">G</tspan><tspan class="cls-62" x="8.13" y="0">ov</tspan><tspan class="cls-53" x="24.13" y="0">e</tspan><tspan class="cls-35" x="32.09" y="0">r</tspan><tspan class="cls-55" x="40.28" y="0">n</tspan><tspan class="cls-34" x="48.39" y="0">a</tspan><tspan class="cls-1" x="56.55" y="0">n</tspan><tspan class="cls-34" x="64.62" y="0">c</tspan><tspan class="cls-50" x="72.78" y="0">e</tspan></text>
        <g>
          <g>
            <text class="cls-2" transform="translate(113.35 171.23)"><tspan class="cls-48" x="0" y="0">M</tspan><tspan class="cls-13" x="57" y="0">AK</tspan><tspan class="cls-64" x="148.46" y="0">E</tspan></text>
            <text class="cls-3" transform="translate(180.76 314.52)"><tspan class="cls-49" x="0" y="0">s</tspan><tspan class="cls-9" x="78.61" y="0">h</tspan><tspan class="cls-15" x="212.03" y="0">i</tspan><tspan class="cls-16" x="272.85" y="0">f</tspan><tspan class="cls-67" x="342.62" y="0">t</tspan></text>
            <g>
              <rect class="cls-20" x="213.71" y="337.18" width="387.13" height="35.33"/>
              <text class="cls-17" transform="translate(234.85 361.95) scale(1.07 1)"><tspan class="cls-44" x="0" y="0">A</tspan><tspan class="cls-61" x="13.05" y="0">C</tspan><tspan class="cls-51" x="25.92" y="0">C</tspan><tspan class="cls-66" x="38.8" y="0">O</tspan><tspan class="cls-47" x="54.34" y="0">U</tspan><tspan class="cls-7" x="69.53" y="0">N</tspan><tspan class="cls-43" x="84.58" y="0">T</tspan><tspan class="cls-60" x="96.57" y="0">A</tspan><tspan class="cls-10" x="110.11" y="0">B</tspan><tspan class="cls-32" x="124.13" y="0">L</tspan><tspan class="cls-57" x="135.96" y="0">E </tspan><tspan class="cls-40" x="153.81" y="0">T</tspan><tspan class="cls-8" x="166.54" y="0">E</tspan><tspan class="cls-14" x="178.96" y="0">C</tspan><tspan class="cls-57" x="192.23" y="0">H </tspan><tspan class="cls-54" x="212.77" y="0">B</tspan><tspan class="cls-57" x="226.51" y="0">Y </tspan><tspan class="cls-23" x="244.11" y="0">D</tspan><tspan class="cls-28" x="258.62" y="0">E</tspan><tspan class="cls-30" x="271.28" y="0">S</tspan><tspan class="cls-14" x="284.2" y="0">I</tspan><tspan class="cls-41" x="291.7" y="0">G</tspan><tspan class="cls-57" x="306.44" y="0">N</tspan></text>
            </g>
            <path class="cls-4" d="M425.69,380.68c1.46.17,5.92-1.23,6.37-6.65.01-.22.03-.44.03-.67,0-2.86-.8-4.96-2.4-6.29-1.6-1.34-3.53-2-5.79-2-3.2,0-5.51,1.17-6.92,3.53-1.13,1.89-1.79,3.68-2.01,5.39-.68,7.48,6.57,6.22,10.71,6.7Z"/>
          </g>
          <rect class="cls-4" x="551.47" y="195.36" width="6.92" height="4.24"/>
        </g>
      </g>
    </g>
  </g>
</svg>