<?xml version="1.0" encoding="utf-8"?>
<!-- Generator: Adobe Illustrator 29.5.0, SVG Export Plug-In . SVG Version: 9.03 Build 0)  -->
<svg version="1.1" id="Layer_1" xmlns="http://www.w3.org/2000/svg" xmlns:xlink="http://www.w3.org/1999/xlink" x="0px" y="0px"
	 viewBox="0 0 716.2 650.7" style="enable-background:new 0 0 716.2 650.7;" xml:space="preserve">
<style type="text/css">
	.st0{opacity:0.5;}
	.st1{clip-path:url(#SVGID_00000122709797456117485060000003244303821989965999_);}
	.st2{clip-path:url(#SVGID_00000002364776335320134730000017373747160282376856_);}
	.st3{clip-path:url(#SVGID_00000102514529499560603640000006439156442990671286_);}
	.st4{fill:none;}
	.st5{fill:#FFFFFF;}
	.st6{fill:#E5E5E5;}
	.st7{clip-path:url(#SVGID_00000089566251069927383040000008897102624992897451_);}
	.st8{clip-path:url(#SVGID_00000095339147089754289350000007774387494246580363_);}
	.st9{clip-path:url(#SVGID_00000068655156800977896480000017276602718923144078_);}
	.st10{clip-path:url(#SVGID_00000177476870039121217910000005547480615227851401_);}
	.st11{clip-path:url(#SVGID_00000124126545529789531450000007167497951671516080_);}
	.st12{clip-path:url(#SVGID_00000078014210608411604170000009876076816667144878_);}
	.st13{clip-path:url(#SVGID_00000155106030119441030090000004017030313208384146_);}
	.st14{clip-path:url(#SVGID_00000128444797327327227990000013229755739420226991_);}
	.st15{clip-path:url(#SVGID_00000091701298765373788240000012837982532549592996_);}
	.st16{clip-path:url(#SVGID_00000016062584486680084850000012790062740056731831_);}
	.st17{fill:none;stroke:#6B6B6B;stroke-miterlimit:10;}
	.st18{fill:#00B4E3;}
	.st19{fill:#CFEDFF;stroke:#FFFFFF;stroke-width:2.7;stroke-miterlimit:10;}
	.st20{fill:none;stroke:#FFFFFF;stroke-width:2.2585;stroke-miterlimit:10;}
	.st21{fill:#0072D9;}
	.st22{fill:#002684;}
	.st23{fill:#EDCD2F;}
	.st24{fill:#CFEDFF;}
	.st25{clip-path:url(#SVGID_00000152257040539197393070000004105536269298018998_);}
	.st26{clip-path:url(#SVGID_00000040574283869947089860000012081023470999559043_);}
	.st27{clip-path:url(#SVGID_00000023281131429486327410000008293070716727600020_);}
	.st28{clip-path:url(#SVGID_00000034795495659641407700000015346469664689597076_);}
	.st29{clip-path:url(#SVGID_00000065044503296277090610000008442531184878503066_);}
	.st30{clip-path:url(#SVGID_00000092455549020873333420000011884213380884519867_);}
	.st31{clip-path:url(#SVGID_00000169560287517320210050000010171252933808723117_);}
	.st32{clip-path:url(#SVGID_00000161599094679984974100000016009051140603099546_);}
	.st33{clip-path:url(#SVGID_00000065070973433781005560000006730190373564774555_);}
	.st34{clip-path:url(#SVGID_00000170977579192243209950000012828011990623901854_);}
	.st35{clip-path:url(#SVGID_00000093139784304641081400000002044442597020075669_);}
	.st36{clip-path:url(#SVGID_00000041285397963366814180000004018658911952201604_);}
	.st37{clip-path:url(#SVGID_00000063633024784587231110000002886484122696634251_);}
	.st38{fill:#B7FF08;}
</style>
<g>
	<g>
		<polygon class="st24" points="359,168.8 648.8,265.5 694.6,500.8 360.2,649.5 21.6,501.7 66.7,266.3 		"/>
	</g>
	<g>
		<path class="st5" d="M360.2,650.7l-0.4-0.2L20.4,502.3l0.2-0.8l45.2-235.9l0.6-0.2L359,167.6l0.3,0.1l290.3,97l0.1,0.6l46,236.1
			L360.2,650.7z M22.8,501l337.4,147.3l333.2-148.2l-45.5-233.8L359,169.9L67.7,267.2L22.8,501z"/>
	</g>
	<g>
		<polygon class="st21" points="359,88.5 655.9,187.7 702.8,428.7 360.2,581 13.3,429.6 59.6,188.5 		"/>
	</g>
	<g>
		<path class="st24" d="M50.2,432.4c-0.6-0.3-1.1-0.6-1.4-1c-0.3-0.4-0.6-0.9-0.6-1.4c-0.1-0.5,0-1,0.2-1.6l1.7-3.8
			c0.2-0.5,0.6-1,1-1.2c0.4-0.3,0.9-0.4,1.4-0.5c0.5,0,1.1,0.1,1.7,0.4c0.6,0.3,1.1,0.6,1.4,1c0.3,0.4,0.6,0.9,0.6,1.4
			c0.1,0.5,0,1-0.2,1.6l-1.8-0.8c0.2-0.4,0.2-0.7,0.1-0.9c-0.1-0.3-0.4-0.5-0.7-0.6c-0.4-0.2-0.7-0.2-1-0.1
			c-0.3,0.1-0.5,0.3-0.7,0.7l-1.7,3.8c-0.2,0.3-0.2,0.7-0.1,0.9c0.1,0.3,0.4,0.5,0.7,0.7c0.4,0.2,0.7,0.2,1,0.1s0.5-0.3,0.7-0.7
			l1.8,0.8c-0.2,0.5-0.6,0.9-1,1.2c-0.4,0.3-0.9,0.5-1.4,0.5C51.4,432.8,50.8,432.7,50.2,432.4z"/>
		<path class="st24" d="M57.6,435.7c-0.6-0.3-1.1-0.6-1.4-1c-0.3-0.4-0.5-0.9-0.6-1.4c-0.1-0.5,0-1,0.3-1.6l0.7-1.6
			c0.2-0.5,0.6-0.9,1-1.2c0.4-0.3,0.9-0.5,1.4-0.5c0.5,0,1.1,0.1,1.7,0.3c0.6,0.3,1.1,0.6,1.4,1c0.3,0.4,0.5,0.9,0.6,1.4
			c0.1,0.5,0,1-0.3,1.6l-0.7,1.6c-0.2,0.5-0.6,0.9-1,1.2c-0.4,0.3-0.9,0.5-1.4,0.5C58.7,436.1,58.2,435.9,57.6,435.7z M58.3,434.1
			c0.4,0.2,0.7,0.2,0.9,0.1c0.3-0.1,0.5-0.3,0.6-0.7l0.7-1.6c0.2-0.4,0.2-0.7,0.1-0.9c-0.1-0.3-0.3-0.5-0.7-0.6
			c-0.3-0.2-0.7-0.2-0.9-0.1c-0.3,0.1-0.5,0.3-0.6,0.7l-0.7,1.6c-0.2,0.3-0.2,0.7-0.1,0.9C57.7,433.7,57.9,434,58.3,434.1z"/>
		<path class="st24" d="M62.1,437.5l2.9-6.7l1.5,0.7l-0.5,1l0,0c0.2-0.3,0.4-0.6,0.7-0.7c0.3-0.1,0.6-0.1,0.9,0
			c0.3,0.1,0.5,0.3,0.6,0.6c0.1,0.3,0.1,0.6,0.1,1c0.2-0.3,0.4-0.5,0.7-0.7c0.3-0.1,0.6-0.1,0.9,0c0.4,0.2,0.7,0.5,0.8,0.9
			c0.1,0.4,0.1,0.9-0.1,1.4l-2.2,5.1l-1.6-0.7l2.2-4.9c0.2-0.4,0.1-0.6-0.2-0.8c-0.3-0.1-0.5,0-0.7,0.4l-2.2,4.9l-1.4-0.6l2.2-4.9
			c0.2-0.4,0.1-0.6-0.2-0.8c-0.3-0.1-0.5,0-0.7,0.4l-2.2,4.9L62.1,437.5z"/>
		<path class="st24" d="M69.9,440.9l2.9-6.7l1.5,0.7l-0.5,1l0,0c0.2-0.3,0.4-0.6,0.7-0.7c0.3-0.1,0.6-0.1,0.9,0
			c0.3,0.1,0.5,0.3,0.6,0.6c0.1,0.3,0.1,0.6,0.1,1c0.2-0.3,0.4-0.5,0.7-0.7c0.3-0.1,0.6-0.1,0.9,0c0.4,0.2,0.7,0.5,0.8,0.9
			c0.1,0.4,0.1,0.9-0.1,1.4l-2.2,5.1l-1.6-0.7l2.2-4.9c0.2-0.4,0.1-0.6-0.2-0.8c-0.3-0.1-0.5,0-0.7,0.4l-2.2,4.9l-1.4-0.6l2.2-4.9
			c0.2-0.4,0.1-0.6-0.2-0.8c-0.3-0.1-0.5,0-0.7,0.4l-2.2,4.9L69.9,440.9z"/>
		<path class="st24" d="M80.6,445.8c-0.9-0.4-1.5-0.9-1.8-1.7c-0.3-0.7-0.3-1.5,0.1-2.3l1.8-4.1l1.8,0.8l-1.8,4.1
			c-0.3,0.8-0.2,1.3,0.5,1.6c0.3,0.1,0.6,0.2,0.9,0s0.5-0.4,0.6-0.7l1.8-4.1l1.8,0.8l-1.8,4.1c-0.4,0.8-0.9,1.4-1.6,1.7
			C82.3,446.3,81.5,446.2,80.6,445.8z"/>
		<path class="st24" d="M85.3,447.7l2.9-6.7l1.8,0.8l-0.5,1.2c0.3-0.4,0.6-0.6,1-0.7c0.4-0.1,0.9-0.1,1.3,0.2
			c0.6,0.3,1.1,0.7,1.3,1.4c0.2,0.6,0.1,1.3-0.2,2.1l-1.9,4.3l-1.8-0.8l1.8-4.1c0.2-0.3,0.2-0.7,0.1-0.9s-0.3-0.5-0.6-0.6
			c-0.3-0.1-0.6-0.2-0.9,0c-0.3,0.1-0.5,0.3-0.6,0.7l-1.8,4.1L85.3,447.7z"/>
		<path class="st24" d="M92.7,451l0.7-1.6l2.2,1l1.5-3.4l-2-0.9l0.7-1.6l3.8,1.7l-2.2,5l1.9,0.8l-0.7,1.6L92.7,451z M99.1,444.6
			c-0.3-0.1-0.6-0.3-0.7-0.6c-0.1-0.3-0.1-0.5,0-0.8c0.1-0.3,0.3-0.5,0.6-0.6c0.3-0.1,0.6-0.1,0.9,0.1c0.3,0.1,0.6,0.3,0.7,0.6
			c0.1,0.3,0.1,0.5,0,0.8s-0.3,0.5-0.6,0.6C99.7,444.8,99.4,444.7,99.1,444.6z"/>
		<path class="st24" d="M102.9,455.5c-0.7-0.3-1.1-0.7-1.3-1.3c-0.2-0.6-0.2-1.2,0.1-1.9l1.3-2.9l-1.8-0.8l0.7-1.6l1.8,0.8l0.8-1.9
			l1.8,0.8l-0.8,1.9l2.6,1.1l-0.7,1.6l-2.6-1.1l-1.2,2.8c-0.1,0.2-0.1,0.3-0.1,0.5s0.2,0.3,0.3,0.3l2,0.9l-0.7,1.6L102.9,455.5z"/>
		<path class="st24" d="M107.2,460l2-2.1l0.3-7.4l1.9,0.8l-0.2,3.4c0,0.3,0,0.5-0.1,0.9c0,0.3-0.1,0.6-0.2,0.9
			c0.1-0.2,0.3-0.5,0.5-0.7c0.2-0.3,0.4-0.5,0.6-0.7l2.3-2.5l1.9,0.8l-7.1,7.5L107.2,460z"/>
		<path class="st24" d="M124.2,463.6l0.9-2.1l-2.1-0.9l0.7-1.7l2.1,0.9l0.9-2.1l1.8,0.8l-0.9,2.1l2.1,0.9l-0.7,1.7l-2.1-0.9
			l-0.9,2.1L124.2,463.6z"/>
		<path class="st24" d="M136.6,470.3l3.9-8.9l3,1.3c0.6,0.3,1.1,0.6,1.5,1.1c0.4,0.4,0.6,0.9,0.6,1.5c0.1,0.5,0,1.1-0.3,1.6
			c-0.2,0.6-0.6,1-1,1.3c-0.4,0.3-1,0.5-1.5,0.5c-0.6,0-1.2-0.1-1.8-0.4l-1.2-0.5l-1.4,3.2L136.6,470.3z M140.6,466.3l1.2,0.5
			c0.4,0.2,0.7,0.2,1.1,0.1c0.3-0.1,0.6-0.4,0.7-0.7c0.2-0.4,0.2-0.7,0-1c-0.1-0.3-0.4-0.6-0.8-0.8l-1.2-0.5L140.6,466.3z"/>
		<path class="st24" d="M146.9,475c-0.6-0.3-1.1-0.6-1.4-1c-0.3-0.4-0.5-0.9-0.6-1.4c-0.1-0.5,0-1,0.3-1.6l0.7-1.6
			c0.2-0.5,0.6-0.9,1-1.2c0.4-0.3,0.9-0.5,1.4-0.5c0.5,0,1.1,0.1,1.7,0.3c0.6,0.3,1.1,0.6,1.4,1c0.3,0.4,0.5,0.9,0.6,1.4
			c0.1,0.5,0,1-0.3,1.6l-0.7,1.6c-0.2,0.5-0.6,0.9-1,1.2c-0.4,0.3-0.9,0.5-1.4,0.5C148.1,475.4,147.5,475.2,146.9,475z M147.6,473.4
			c0.4,0.2,0.7,0.2,0.9,0.1c0.3-0.1,0.5-0.3,0.6-0.7l0.7-1.6c0.2-0.4,0.2-0.7,0.1-0.9c-0.1-0.3-0.3-0.5-0.7-0.6
			c-0.3-0.2-0.7-0.2-0.9-0.1c-0.3,0.1-0.5,0.3-0.6,0.7l-0.7,1.6c-0.2,0.3-0.2,0.7-0.1,0.9C147,473,147.2,473.2,147.6,473.4z"/>
		<path class="st24" d="M152,477.1l1.9-7.1l1.4,0.6l-1.1,3.9c-0.1,0.3-0.2,0.7-0.3,1c-0.1,0.4-0.2,0.7-0.3,0.9
			c0.1-0.2,0.3-0.5,0.4-0.8c0.2-0.3,0.4-0.6,0.6-0.9l2.2-3.4l1.4,0.6l-1,3.9c-0.1,0.3-0.2,0.7-0.3,1c-0.1,0.4-0.2,0.7-0.3,0.9
			c0.1-0.2,0.3-0.5,0.4-0.9c0.2-0.3,0.3-0.7,0.5-0.9l2.1-3.4l1.4,0.6l-4,6.2l-1.8-0.8l1.1-4c0.1-0.2,0.2-0.5,0.3-0.9
			c0.1-0.3,0.2-0.6,0.3-0.8c-0.1,0.1-0.1,0.3-0.3,0.5c-0.1,0.2-0.2,0.4-0.3,0.6c-0.1,0.2-0.2,0.4-0.3,0.5l-2.2,3.5L152,477.1z"/>
		<path class="st24" d="M162.1,481.7c-0.6-0.3-1.1-0.6-1.4-1c-0.3-0.4-0.5-0.9-0.6-1.4c-0.1-0.5,0-1,0.3-1.6l0.7-1.6
			c0.2-0.5,0.6-0.9,1-1.2c0.4-0.3,0.9-0.5,1.4-0.5s1.1,0.1,1.7,0.3s1.1,0.6,1.4,1c0.3,0.4,0.5,0.9,0.6,1.4c0.1,0.5,0,1-0.3,1.6
			l-0.5,1.2l-4.1-1.8l-0.1,0.3c-0.2,0.4-0.2,0.8-0.1,1.1c0.1,0.3,0.4,0.5,0.8,0.7c0.3,0.1,0.5,0.2,0.7,0.2c0.2,0,0.4-0.1,0.5-0.2
			l1.8,0.8c-0.4,0.5-0.9,0.9-1.6,1S162.8,482,162.1,481.7z M162.7,476.9l-0.1,0.2l2.4,1l0.1-0.2c0.2-0.4,0.2-0.8,0.1-1.1
			c-0.1-0.3-0.3-0.6-0.7-0.7c-0.4-0.2-0.7-0.2-1,0C163.2,476.2,162.9,476.5,162.7,476.9z"/>
		<path class="st24" d="M166.8,483.6l2.9-6.7l1.8,0.8l-0.6,1.3c0.3-0.4,0.6-0.6,1.1-0.7c0.4-0.1,0.9,0,1.4,0.2
			c0.7,0.3,1.1,0.8,1.3,1.4s0.1,1.3-0.3,2.1l-0.3,0.7l-1.8-0.8l0.2-0.5c0.2-0.3,0.2-0.7,0.1-0.9c-0.1-0.3-0.3-0.5-0.7-0.6
			s-0.6-0.2-0.9,0c-0.3,0.1-0.5,0.4-0.7,0.8l-1.8,4L166.8,483.6z"/>
	</g>
	<g>
		<path class="st22" d="M51,499.9l0.7-1.6l1.8,0.8l2.5-5.6l-1.8-0.8l0.7-1.6l5.3,2.3l-0.7,1.6l-1.8-0.8l-2.5,5.6l1.8,0.8l-0.7,1.6
			L51,499.9z"/>
		<path class="st22" d="M58,503l2.9-6.7l1.8,0.8l-0.5,1.2c0.3-0.4,0.6-0.6,1-0.7c0.4-0.1,0.9-0.1,1.3,0.2c0.6,0.3,1.1,0.7,1.3,1.4
			c0.2,0.6,0.1,1.3-0.2,2.1l-1.9,4.3l-1.8-0.8l1.8-4.1c0.2-0.3,0.2-0.7,0.1-0.9c-0.1-0.3-0.3-0.5-0.6-0.6c-0.3-0.1-0.6-0.2-0.9,0
			c-0.3,0.1-0.5,0.3-0.6,0.7l-1.8,4.1L58,503z"/>
		<path class="st22" d="M67,507l1.8-4.1l-1.8-0.8l0.7-1.6l1.8,0.8l0.5-1c0.3-0.6,0.7-1,1.3-1.2c0.6-0.2,1.2-0.1,1.9,0.2l2,0.9
			l-0.7,1.6l-1.9-0.8c-0.2-0.1-0.3-0.1-0.5,0c-0.1,0.1-0.3,0.2-0.3,0.3l-0.4,1l2.4,1.1l-0.7,1.6l-2.4-1.1l-1.8,4.1L67,507z"/>
		<path class="st22" d="M73,509.6l2.9-6.7l1.8,0.8l-0.6,1.3c0.3-0.4,0.6-0.6,1.1-0.7c0.4-0.1,0.9,0,1.4,0.2c0.7,0.3,1.1,0.8,1.3,1.4
			s0.1,1.3-0.3,2.1l-0.3,0.7l-1.8-0.8l0.2-0.5c0.2-0.3,0.2-0.7,0.1-0.9c-0.1-0.3-0.3-0.5-0.7-0.6c-0.3-0.1-0.7-0.2-0.9,0
			c-0.3,0.1-0.5,0.4-0.7,0.8l-1.8,4L73,509.6z"/>
		<path class="st22" d="M82.1,513.8c-0.7-0.3-1.1-0.7-1.3-1.3c-0.2-0.6-0.2-1.1,0.1-1.8c0.3-0.7,0.8-1.1,1.4-1.3
			c0.6-0.2,1.4-0.1,2.3,0.3l1.3,0.6l0.2-0.4c0.1-0.3,0.1-0.5,0-0.7c-0.1-0.2-0.3-0.4-0.7-0.5c-0.3-0.1-0.6-0.2-0.8-0.1
			c-0.2,0-0.4,0.2-0.5,0.4l-1.7-0.8c0.3-0.6,0.8-1.1,1.5-1.2s1.4-0.1,2.3,0.3c0.9,0.4,1.5,0.9,1.8,1.5c0.3,0.6,0.3,1.3,0,2l-2,4.5
			l-1.8-0.8l0.5-1.2c-0.3,0.4-0.6,0.6-1,0.7C83.1,514.1,82.6,514,82.1,513.8z M83.4,512.6c0.4,0.2,0.7,0.2,1,0.1
			c0.3-0.1,0.5-0.3,0.7-0.6l0.3-0.7l-1.3-0.6c-0.3-0.1-0.6-0.2-0.8-0.1c-0.2,0.1-0.4,0.2-0.5,0.5c-0.1,0.3-0.1,0.5,0,0.7
			C82.8,512.3,83.1,512.5,83.4,512.6z"/>
		<path class="st22" d="M90.1,517.3c-0.5-0.2-1-0.5-1.3-0.9c-0.3-0.4-0.6-0.7-0.6-1.1c-0.1-0.4-0.1-0.8,0.1-1.2l1.8,0.8
			c-0.1,0.2-0.1,0.4,0,0.6c0.1,0.2,0.3,0.3,0.6,0.5l0.5,0.2c0.3,0.1,0.6,0.2,0.8,0.2c0.2,0,0.4-0.2,0.5-0.4c0.1-0.2,0.1-0.4,0-0.5
			c-0.1-0.2-0.3-0.3-0.6-0.5l-1.4-0.9c-0.6-0.3-0.9-0.8-1.1-1.3c-0.2-0.5-0.1-1,0.1-1.6c0.6-1.3,1.8-1.6,3.5-0.9l0.6,0.3
			c0.8,0.4,1.4,0.8,1.7,1.4c0.3,0.6,0.4,1.2,0.1,1.8l-1.8-0.8c0.1-0.2,0.1-0.4,0-0.6c-0.1-0.2-0.3-0.3-0.6-0.4l-0.6-0.3
			c-0.3-0.1-0.5-0.2-0.7-0.1s-0.3,0.2-0.4,0.3c-0.1,0.2-0.1,0.3,0,0.5c0.1,0.1,0.3,0.3,0.5,0.4l1.4,0.8c0.6,0.4,1,0.8,1.2,1.3
			s0.1,1.1-0.2,1.7c-0.3,0.7-0.7,1.1-1.4,1.2c-0.6,0.2-1.4,0-2.3-0.4L90.1,517.3z"/>
		<path class="st22" d="M98.7,520.9c-0.7-0.3-1.1-0.7-1.3-1.3c-0.2-0.6-0.2-1.2,0.1-1.9l1.3-2.8l-1.8-0.8l0.7-1.6l1.8,0.8l0.8-1.9
			l1.8,0.8l-0.8,1.9l2.6,1.1l-0.7,1.6l-2.6-1.1l-1.2,2.8c-0.1,0.2-0.1,0.3-0.1,0.5s0.2,0.3,0.3,0.3l2,0.9l-0.7,1.6L98.7,520.9z"/>
		<path class="st22" d="M102.7,522.7l2.9-6.7l1.8,0.8l-0.6,1.3c0.3-0.4,0.6-0.6,1.1-0.7c0.4-0.1,0.9,0,1.4,0.2
			c0.7,0.3,1.1,0.8,1.3,1.4c0.2,0.6,0.1,1.3-0.3,2.1l-0.3,0.7l-1.8-0.8l0.2-0.5c0.2-0.3,0.2-0.7,0.1-0.9c-0.1-0.3-0.3-0.5-0.7-0.6
			s-0.7-0.2-0.9,0c-0.3,0.1-0.5,0.4-0.7,0.8l-1.8,4L102.7,522.7z"/>
		<path class="st22" d="M112.8,527.3c-0.9-0.4-1.5-0.9-1.8-1.7c-0.3-0.7-0.3-1.5,0.1-2.3l1.8-4.1l1.8,0.8l-1.8,4.1
			c-0.3,0.8-0.2,1.3,0.5,1.6c0.3,0.1,0.6,0.2,0.9,0c0.3-0.1,0.5-0.4,0.7-0.7l1.8-4.1l1.8,0.8l-1.8,4.1c-0.4,0.8-0.9,1.4-1.6,1.7
			C114.5,527.7,113.7,527.7,112.8,527.3z"/>
		<path class="st22" d="M120.3,530.6c-0.6-0.3-1.1-0.6-1.4-1c-0.3-0.4-0.6-0.9-0.6-1.4c-0.1-0.5,0-1,0.3-1.6l0.7-1.6
			c0.2-0.5,0.6-1,1-1.2c0.4-0.3,0.9-0.4,1.4-0.5c0.5,0,1.1,0.1,1.7,0.3c0.9,0.4,1.5,0.9,1.8,1.6c0.3,0.7,0.3,1.4,0,2.2l-1.8-0.8
			c0.1-0.3,0.1-0.6-0.1-0.8c-0.1-0.3-0.4-0.5-0.7-0.6c-0.4-0.2-0.7-0.2-1-0.1c-0.3,0.1-0.5,0.3-0.6,0.7l-0.7,1.6
			c-0.2,0.3-0.2,0.7-0.1,0.9c0.1,0.3,0.3,0.5,0.7,0.7c0.3,0.1,0.6,0.2,0.9,0.1c0.3-0.1,0.5-0.2,0.7-0.5l1.8,0.8
			c-0.4,0.8-0.9,1.2-1.6,1.5C121.9,531,121.1,530.9,120.3,530.6z"/>
		<path class="st22" d="M128.5,534c-0.7-0.3-1.1-0.7-1.3-1.3s-0.2-1.2,0.1-1.9l1.3-2.8l-1.8-0.8l0.7-1.6l1.8,0.8l0.8-1.9l1.8,0.8
			l-0.8,1.9l2.6,1.1L133,530l-2.6-1.1l-1.2,2.8c-0.1,0.2-0.1,0.3-0.1,0.5s0.2,0.3,0.3,0.3l2,0.9l-0.7,1.6L128.5,534z"/>
		<path class="st22" d="M135.1,537.1c-0.9-0.4-1.5-0.9-1.8-1.7c-0.3-0.7-0.3-1.5,0.1-2.3l1.8-4.1l1.8,0.8l-1.8,4.1
			c-0.3,0.8-0.2,1.3,0.5,1.6c0.3,0.1,0.6,0.2,0.9,0s0.5-0.4,0.7-0.7l1.8-4.1l1.8,0.8l-1.8,4.1c-0.4,0.8-0.9,1.4-1.6,1.7
			S136,537.5,135.1,537.1z"/>
		<path class="st22" d="M140,539.1l2.9-6.7l1.8,0.8l-0.6,1.3c0.3-0.4,0.6-0.6,1.1-0.7c0.4-0.1,0.9,0,1.4,0.2
			c0.7,0.3,1.1,0.8,1.3,1.4s0.1,1.3-0.3,2.1l-0.3,0.7l-1.8-0.8l0.2-0.5c0.2-0.3,0.2-0.7,0.1-0.9s-0.3-0.5-0.7-0.6s-0.7-0.2-0.9,0
			c-0.3,0.1-0.5,0.4-0.7,0.8l-1.8,4L140,539.1z"/>
		<path class="st22" d="M150,543.7c-0.6-0.3-1.1-0.6-1.4-1c-0.3-0.4-0.5-0.9-0.6-1.4c-0.1-0.5,0-1,0.3-1.6l0.7-1.6
			c0.2-0.5,0.6-0.9,1-1.2c0.4-0.3,0.9-0.5,1.4-0.5c0.5,0,1.1,0.1,1.7,0.3s1.1,0.6,1.4,1c0.3,0.4,0.5,0.9,0.6,1.4
			c0.1,0.5,0,1-0.3,1.6l-0.5,1.2l-4.1-1.8l-0.1,0.3c-0.2,0.4-0.2,0.8-0.1,1.1c0.1,0.3,0.4,0.5,0.8,0.7c0.3,0.1,0.5,0.2,0.7,0.2
			c0.2,0,0.4-0.1,0.5-0.2l1.8,0.8c-0.4,0.5-0.9,0.9-1.6,1C151.4,544.1,150.8,544,150,543.7z M150.7,538.9l-0.1,0.2l2.4,1l0.1-0.2
			c0.2-0.4,0.2-0.8,0.1-1.1c-0.1-0.3-0.3-0.6-0.7-0.7c-0.4-0.2-0.7-0.2-1,0C151.1,538.2,150.9,538.5,150.7,538.9z"/>
	</g>
	<g>
		<path class="st5" d="M360.2,582.2l-0.4-0.2L12.1,430.2l0.2-0.8l46.3-241.7l0.6-0.2L359,87.4l0.3,0.1l297.5,99.3l0.1,0.6
			l47.1,241.9L360.2,582.2z M14.6,429l345.7,150.9L701.6,428L655,188.5L359,89.7L60.5,189.3L14.6,429z"/>
	</g>
	<g>
		<polygon class="st22" points="359.1,1.1 666.4,103.8 715,353.3 360.3,511 1.2,354.2 49.1,104.6 		"/>
	</g>
	<g>
		<path class="st5" d="M360.3,512.2l-0.4-0.2L0,354.8l0.2-0.8l48-250.2l0.6-0.2L359.1,0l0.3,0.1l307.9,102.8l0.1,0.6l48.7,250.4
			l-0.8,0.4L360.3,512.2z M2.4,353.6l357.9,156.2l353.4-157.2l-48.3-248L359.1,2.3L50,105.5L2.4,353.6z"/>
	</g>
	<g>
		<path class="st24" d="M45.9,359c-0.6-0.3-1.1-0.6-1.4-1c-0.3-0.4-0.6-0.9-0.6-1.4c-0.1-0.5,0-1,0.2-1.6l1.7-3.8
			c0.2-0.5,0.6-1,1-1.2c0.4-0.3,0.9-0.4,1.4-0.5c0.5,0,1.1,0.1,1.7,0.4c0.6,0.3,1.1,0.6,1.4,1c0.3,0.4,0.5,0.9,0.6,1.4
			c0.1,0.5,0,1-0.2,1.6l-1.8-0.8c0.2-0.4,0.2-0.7,0.1-0.9c-0.1-0.3-0.4-0.5-0.7-0.6c-0.4-0.2-0.7-0.2-1-0.1
			c-0.3,0.1-0.5,0.3-0.7,0.7l-1.7,3.8c-0.2,0.3-0.2,0.7-0.1,0.9s0.4,0.5,0.7,0.7c0.4,0.2,0.7,0.2,1,0.1c0.3-0.1,0.5-0.3,0.7-0.7
			l0.4-0.8l-1.3-0.6l0.7-1.5l3.1,1.4l-1,2.4c-0.2,0.5-0.6,0.9-1,1.2c-0.4,0.3-0.9,0.5-1.4,0.5S46.5,359.3,45.9,359z"/>
		<path class="st24" d="M53.3,362.3c-0.6-0.3-1.1-0.6-1.4-1c-0.3-0.4-0.5-0.9-0.6-1.4c-0.1-0.5,0-1,0.3-1.6l0.7-1.6
			c0.2-0.5,0.6-0.9,1-1.2c0.4-0.3,0.9-0.5,1.4-0.5c0.5,0,1.1,0.1,1.7,0.3c0.6,0.3,1.1,0.6,1.4,1s0.5,0.9,0.6,1.4
			c0.1,0.5,0,1-0.3,1.6l-0.7,1.6c-0.2,0.5-0.6,0.9-1,1.2c-0.4,0.3-0.9,0.5-1.4,0.5C54.5,362.7,53.9,362.6,53.3,362.3z M54,360.7
			c0.4,0.2,0.7,0.2,0.9,0.1c0.3-0.1,0.5-0.3,0.6-0.7l0.7-1.6c0.2-0.4,0.2-0.7,0.1-0.9c-0.1-0.3-0.3-0.5-0.7-0.6
			c-0.3-0.2-0.7-0.2-0.9-0.1c-0.3,0.1-0.5,0.3-0.6,0.7l-0.7,1.6c-0.2,0.3-0.2,0.7-0.1,0.9C53.4,360.3,53.7,360.6,54,360.7z"/>
		<path class="st24" d="M59.6,364.9l0.7-7.6l1.9,0.8l-0.5,4.3c0,0.3-0.1,0.5-0.1,0.8c0,0.3-0.1,0.5-0.2,0.7c0.1-0.2,0.2-0.4,0.4-0.6
			c0.2-0.2,0.3-0.4,0.5-0.6l2.8-3.3l1.9,0.8l-5.1,5.7L59.6,364.9z"/>
		<path class="st24" d="M68,368.7c-0.6-0.3-1.1-0.6-1.4-1c-0.3-0.4-0.5-0.9-0.6-1.4c-0.1-0.5,0-1,0.3-1.6l0.7-1.6
			c0.2-0.5,0.6-0.9,1-1.2c0.4-0.3,0.9-0.5,1.4-0.5c0.5,0,1.1,0.1,1.7,0.3c0.6,0.3,1.1,0.6,1.4,1c0.3,0.4,0.5,0.9,0.6,1.4
			c0.1,0.5,0,1-0.3,1.6l-0.5,1.2l-4.1-1.8l-0.1,0.3c-0.2,0.4-0.2,0.8-0.1,1.1c0.1,0.3,0.4,0.5,0.8,0.7c0.3,0.1,0.5,0.2,0.7,0.2
			c0.2,0,0.4-0.1,0.5-0.2l1.8,0.8c-0.4,0.5-0.9,0.9-1.6,1C69.4,369.1,68.7,369.1,68,368.7z M68.6,364l-0.1,0.2l2.4,1L71,365
			c0.2-0.4,0.2-0.8,0.1-1.1c-0.1-0.3-0.3-0.6-0.7-0.7c-0.4-0.2-0.7-0.2-1,0C69.1,363.3,68.8,363.6,68.6,364z"/>
		<path class="st24" d="M72.7,370.7l2.9-6.7l1.8,0.8l-0.6,1.3c0.3-0.4,0.6-0.6,1.1-0.7c0.4-0.1,0.9,0,1.4,0.2
			c0.7,0.3,1.1,0.8,1.3,1.4s0.1,1.3-0.3,2.1l-0.3,0.7l-1.8-0.8l0.2-0.5c0.2-0.3,0.2-0.7,0.1-0.9c-0.1-0.3-0.3-0.5-0.7-0.6
			c-0.3-0.1-0.6-0.2-0.9,0c-0.3,0.1-0.5,0.4-0.7,0.8l-1.8,4L72.7,370.7z"/>
		<path class="st24" d="M80,373.9l2.9-6.7l1.8,0.8l-0.5,1.2c0.3-0.4,0.6-0.6,1.1-0.7s0.9-0.1,1.3,0.2c0.6,0.3,1.1,0.7,1.3,1.4
			c0.2,0.6,0.1,1.3-0.2,2.1l-1.9,4.3l-1.8-0.8l1.8-4.1c0.2-0.3,0.2-0.7,0.1-0.9c-0.1-0.3-0.3-0.5-0.6-0.6c-0.3-0.1-0.6-0.2-0.9,0
			c-0.3,0.1-0.5,0.3-0.6,0.7l-1.8,4.1L80,373.9z"/>
		<path class="st24" d="M89.3,378.1c-0.7-0.3-1.1-0.7-1.3-1.3c-0.2-0.6-0.2-1.1,0.1-1.8c0.3-0.7,0.8-1.1,1.4-1.3
			c0.6-0.2,1.4-0.1,2.3,0.3l1.3,0.6l0.2-0.4c0.1-0.3,0.1-0.5,0-0.7c-0.1-0.2-0.3-0.4-0.7-0.5c-0.3-0.1-0.6-0.2-0.8-0.1
			c-0.2,0-0.4,0.2-0.5,0.4l-1.7-0.8c0.3-0.6,0.8-1.1,1.5-1.2c0.7-0.2,1.4-0.1,2.3,0.3c0.9,0.4,1.5,0.9,1.8,1.5c0.3,0.6,0.3,1.3,0,2
			l-2,4.5l-1.8-0.8l0.5-1.2c-0.3,0.4-0.6,0.6-1,0.7C90.3,378.4,89.8,378.4,89.3,378.1z M90.6,377c0.4,0.2,0.7,0.2,1,0.1
			c0.3-0.1,0.5-0.3,0.7-0.6l0.3-0.7l-1.3-0.6c-0.3-0.1-0.6-0.2-0.9-0.1c-0.2,0.1-0.4,0.2-0.5,0.5c-0.1,0.3-0.1,0.5,0,0.7
			C90,376.6,90.3,376.8,90.6,377z"/>
		<path class="st24" d="M94.8,380.4l2.9-6.7l1.8,0.8l-0.5,1.2c0.3-0.4,0.6-0.6,1.1-0.7c0.4-0.1,0.9-0.1,1.3,0.2
			c0.6,0.3,1.1,0.7,1.3,1.4c0.2,0.6,0.1,1.3-0.2,2.1l-1.9,4.3l-1.8-0.8l1.8-4.1c0.2-0.3,0.2-0.7,0.1-0.9c-0.1-0.3-0.3-0.5-0.6-0.6
			c-0.3-0.1-0.6-0.2-0.9,0c-0.3,0.1-0.5,0.3-0.6,0.7l-1.8,4.1L94.8,380.4z"/>
		<path class="st24" d="M105.1,385.1c-0.6-0.3-1.1-0.6-1.4-1c-0.3-0.4-0.6-0.9-0.6-1.4c-0.1-0.5,0-1,0.3-1.6l0.7-1.6
			c0.2-0.5,0.6-1,1-1.2c0.4-0.3,0.9-0.4,1.4-0.5c0.5,0,1.1,0.1,1.7,0.3c0.9,0.4,1.5,0.9,1.8,1.6c0.3,0.7,0.3,1.4,0,2.2l-1.8-0.8
			c0.1-0.3,0.1-0.6-0.1-0.8c-0.1-0.3-0.4-0.5-0.7-0.6c-0.4-0.2-0.7-0.2-1-0.1c-0.3,0.1-0.5,0.3-0.6,0.7l-0.7,1.6
			c-0.2,0.3-0.2,0.7-0.1,0.9c0.1,0.3,0.3,0.5,0.7,0.7c0.3,0.1,0.6,0.2,0.9,0.1c0.3-0.1,0.5-0.2,0.7-0.5l1.8,0.8
			c-0.4,0.8-0.9,1.2-1.6,1.5C106.8,385.6,106,385.5,105.1,385.1z"/>
		<path class="st24" d="M112.5,388.3c-0.6-0.3-1.1-0.6-1.4-1c-0.3-0.4-0.5-0.9-0.6-1.4c-0.1-0.5,0-1,0.3-1.6l0.7-1.6
			c0.2-0.5,0.6-0.9,1-1.2c0.4-0.3,0.9-0.5,1.4-0.5c0.5,0,1.1,0.1,1.7,0.3c0.6,0.3,1.1,0.6,1.4,1c0.3,0.4,0.5,0.9,0.6,1.4
			c0.1,0.5,0,1-0.3,1.6l-0.5,1.2l-4.1-1.8l-0.1,0.3c-0.2,0.4-0.2,0.8-0.1,1.1c0.1,0.3,0.4,0.5,0.8,0.7c0.3,0.1,0.5,0.2,0.7,0.2
			s0.4-0.1,0.5-0.2l1.8,0.8c-0.4,0.5-0.9,0.9-1.6,1C113.9,388.7,113.2,388.6,112.5,388.3z M113.2,383.6l-0.1,0.2l2.4,1l0.1-0.2
			c0.2-0.4,0.2-0.8,0.1-1.1s-0.3-0.6-0.7-0.7c-0.4-0.2-0.7-0.2-1,0C113.6,382.9,113.4,383.2,113.2,383.6z"/>
	</g>
	<g>
		<g>
			<g>
				<path class="st5" d="M118.5,127.9h10.7l7,19.2c0.9,2.6,1.6,5.3,2.5,8h0.3c0.9-2.7,1.6-5.4,2.5-8l6.8-19.2h10.7v43.3H150v-15.9
					c0-4.2,0.8-10.5,1.3-14.7H151l-3.6,10.2l-6.1,16.6h-5.4l-6.1-16.6l-3.5-10.2H126c0.5,4.2,1.3,10.5,1.3,14.7v15.9h-8.8V127.9z"/>
				<path class="st5" d="M183.5,127.9h11.7l13.6,43.3h-10.4l-5.7-21.9c-1.2-4.3-2.4-9.4-3.5-14H189c-1,4.6-2.2,9.6-3.4,14l-5.7,21.9
					h-10L183.5,127.9z M178.9,153.3h20.8v7.6h-20.8V153.3z"/>
				<path class="st5" d="M219.8,127.9h9.8v17.7h0.2l12.9-17.7h10.8l-13.1,17.3l15.5,26h-10.7l-10.5-18.3l-5.1,6.7v11.6h-9.8V127.9z"
					/>
				<path class="st5" d="M266.9,127.9h27.1v8.2h-17.3v8.7h14.8v8.2h-14.8v10h18v8.2h-27.8V127.9z"/>
			</g>
			<g>
				<path class="st5" d="M226.8,316.8c12.7,0,26.5-6.8,26.5-26.3c0-14.4-10.4-23.2-22.3-39.5c-6.2-8.5-13-17.8-13-29.1
					c0-20.6,16.9-33.6,39-33.6c9,0,26.5,4.2,26.5,16.4c0,3.4-2,8.5-7.3,8.5c-4.2,0-7.3-2.5-7.3-7.6c0-4.5,2-7.6,2-8.2
					c0-5.1-6.5-7.6-13.3-7.6c-11,0-22.6,6.5-22.6,21.7c0,12.4,11.3,24.3,18.9,34.2c7.3,9.6,16.7,19.8,16.7,33.9
					c0,23.7-17.5,38.7-43.2,38.7c-11.6,0-32.5-4.2-32.5-19.8c0-5.1,3.4-10.7,9-10.7c3.7,0,7.3,2.8,7.3,7.1c0,6.2-5.1,9-5.1,10.2
					C206.2,312.3,215.5,316.8,226.8,316.8z"/>
				<path class="st5" d="M312.7,127.3c8.8,0,16.7-0.3,25.4-1.1c7.1-0.6,13.8-1.4,20.6-2.5l-35,112.4c11.6-22.3,27.7-47.4,46.6-47.4
					c15.5,0,24,9,24,25.7c0,10.7-4,23.2-7.6,32.8c-6.5,16.9-18.4,42.1-18.4,54.8c0,3.4,0,11,7.3,11c9.6,0,22.9-20,28.5-33l0.8,0.6
					c-5.4,12.1-17.8,37-36.1,37c-12.7,0-18.9-10.7-18.9-22.6c0-5.1,0.8-11,3.1-17.5c9.9-28.5,13.8-35,21.5-57.3
					c1.7-4.8,3.4-13,3.4-16.7c0-6.5-2.5-12.1-10.4-12.1c-19.2,0-41.5,40.9-49.1,65.2L300,314.5h-20.9l51.7-168.3
					c0.6-2,1.4-4.5,1.4-7.6c0-9-8.8-10.2-19.8-10.2L312.7,127.3z"/>
				<path class="st5" d="M412.5,222.8c7.3-14.4,19.2-34.4,34.2-34.4c12.7,0,16.7,10.2,16.7,20.3c0,5.1-1.1,11.3-3.1,16.9
					c-6.2,19.2-15.8,38.4-23.2,57.3c-2.5,6.5-5.6,14.4-5.6,20.9c0,4.2,1.1,9.3,6.8,9.3c9.6,0,22.3-20,28.2-33l0.8,0.6
					c-5.9,13-17.8,36.4-35,36.4c-12.4,0-18.1-9.9-18.1-20.3c0-4.5,0.8-9.3,2.5-15c6.8-22.3,18.4-40.9,27.7-66.6
					c1.1-3.4,2.8-9,2.8-13.3c0-5.1-1.1-9.6-6.2-9.6c-9,0-21.2,18.9-27.7,31.1L412.5,222.8z M467,139.7c-7.6,0-13.3,5.9-13.3,13.3
					c0,6.5,5.6,13,13.3,13s13.3-6.5,13.3-13C480.3,145.7,474.7,139.7,467,139.7z"/>
				<path class="st5" d="M549,198.5h-22.3c-11.3,41.8-21.2,80.2-33,124.5c-7.3,28-20,68-59,68c-9,0-20.6-3.4-20.6-13
					c0-4,2.3-9.6,8.2-9.6c4.5,0,7.6,2.5,7.6,7.9c0,3.4-2,6.5-2,7.3c0,4.2,4.2,5.9,7.9,5.9c19.5,0,29.4-38.1,34.4-56.8l35.6-134.4
					h-21.2l0.6-1.7h21.2l0.8-3.7c8.8-33.3,22.9-68.9,61-68.9c9.9,0,18.9,4.2,18.9,13.6c0,4.8-3.1,8.5-7.6,8.5
					c-4.5,0-7.9-3.1-7.9-8.2c0-3.7,1.4-6.8,1.4-7.3c0-3.7-3.1-5.1-6.5-5.1c-18.1,0-26.8,26.5-31.3,42.4l-7.9,28.8h22.3L549,198.5z"
					/>
				<path class="st5" d="M553,196.8h22.9l15-42.9h19.5l-13.3,42.9H618l-0.6,1.7h-20.9l-25.4,83c-1.7,5.6-4,13.3-4,19.5
					c0,4.5,0.3,12.4,6.8,12.4c11.6,0,23.7-21.5,29.1-33.9l1.1,0.3c-4.2,10.2-16.9,37.6-34.4,37.6c-14.7,0-20.9-7.6-20.9-22
					c0-7.3,1.7-15.2,3.7-21.7l22.9-75.1h-22.9L553,196.8z"/>
			</g>
			<g>
				<g>
					<rect x="213.7" y="337.2" class="st38" width="387.1" height="35.3"/>
				</g>
				<g>
					<path d="M239.2,348.1h4.8l4.5,13.9h-4.2l-1.7-6.8c-0.4-1.3-0.7-3-1.1-4.4h-0.1c-0.3,1.4-0.7,3.1-1.1,4.4l-1.7,6.8h-4
						L239.2,348.1z M237.9,356.2h7.3v2.8h-7.3V356.2z"/>
					<path d="M249.9,355.1c0-4.7,3.4-7.3,7.2-7.3c2,0,3.6,0.9,4.6,1.8l-2.1,2.3c-0.7-0.6-1.5-1-2.5-1c-1.7,0-3.3,1.5-3.3,4
						c0,2.6,1.3,4.1,3.2,4.1c1.1,0,2.1-0.6,2.7-1.2l2.1,2.3c-1.3,1.4-3,2.1-4.9,2.1C253.2,362.2,249.9,359.9,249.9,355.1z"/>
					<path d="M263.7,355.1c0-4.7,3.4-7.3,7.2-7.3c2,0,3.6,0.9,4.6,1.8l-2.1,2.3c-0.7-0.6-1.5-1-2.5-1c-1.7,0-3.3,1.5-3.3,4
						c0,2.6,1.3,4.1,3.2,4.1c1.1,0,2.1-0.6,2.7-1.2l2.1,2.3c-1.3,1.4-3,2.1-4.9,2.1C267,362.2,263.7,359.9,263.7,355.1z"/>
					<path d="M277.6,354.9c0-4.6,2.8-7.1,6.9-7.1s6.9,2.6,6.9,7.1c0,4.6-2.8,7.3-6.9,7.3S277.6,359.5,277.6,354.9z M287.4,354.9
						c0-2.5-1.1-4-2.9-4s-2.9,1.5-2.9,4s1.1,4.1,2.9,4.1S287.4,357.5,287.4,354.9z"/>
					<path d="M294.8,355.2v-7.2h3.9v7.6c0,2.5,0.7,3.4,2.2,3.4s2.3-0.9,2.3-3.4v-7.6h3.8v7.2c0,4.7-1.9,7-6.1,7
						S294.8,360,294.8,355.2z"/>
					<path d="M311.2,348.1h4l3.3,6.2l1.4,3.1h0.1c-0.2-1.5-0.5-3.6-0.5-5.3v-4h3.8V362h-4l-3.3-6.2l-1.4-3.1h-0.1
						c0.2,1.6,0.5,3.6,0.5,5.3v4h-3.8V348.1z"/>
					<path d="M330.2,351.1h-3.9v-3.1h11.8v3.1h-3.9V362h-3.9V351.1z"/>
					<path d="M343,348.1h4.8l4.5,13.9h-4.2l-1.7-6.8c-0.4-1.3-0.7-3-1.1-4.4h-0.1c-0.3,1.4-0.7,3.1-1.1,4.4l-1.7,6.8h-4L343,348.1z
						 M341.7,356.2h7.3v2.8h-7.3V356.2z"/>
					<path d="M354.8,348.1h5.4c3.1,0,5.6,0.7,5.6,3.5c0,1.2-0.7,2.6-1.9,3v0.1c1.4,0.4,2.6,1.4,2.6,3.2c0,2.9-2.7,4.1-5.9,4.1h-5.8
						V348.1z M360.1,353.5c1.3,0,1.9-0.6,1.9-1.4s-0.6-1.2-1.9-1.2h-1.3v2.6H360.1z M360.4,359.1c1.6,0,2.3-0.5,2.3-1.5
						s-0.7-1.4-2.3-1.4h-1.6v2.9H360.4z"/>
					<path d="M369.9,348.1h3.9v10.8h5.6v3.1h-9.6V348.1z"/>
					<path d="M382.6,348.1h9.6v3.1h-5.7v2.2h4.9v3.1h-4.9v2.5h5.9v3.1h-9.9V348.1z"/>
					<path d="M404.6,351.1h-3.9v-3.1h11.8v3.1h-3.9V362h-3.9V351.1z"/>
					<path d="M415.5,348.1h9.6v3.1h-5.7v2.2h4.9v3.1h-4.9v2.5h5.9v3.1h-9.9V348.1z"/>
					<path d="M428.2,355.1c0-4.7,3.4-7.3,7.2-7.3c2,0,3.6,0.9,4.6,1.8L438,352c-0.7-0.6-1.5-1-2.5-1c-1.7,0-3.3,1.5-3.3,4
						c0,2.6,1.3,4.1,3.2,4.1c1.1,0,2.1-0.6,2.7-1.2l2.1,2.3c-1.3,1.4-3,2.1-4.9,2.1C431.5,362.2,428.2,359.9,428.2,355.1z"/>
					<path d="M443.1,348.1h3.9v5.2h4.5v-5.2h3.9V362h-3.9v-5.5H447v5.5h-3.9V348.1z"/>
					<path d="M465.2,348.1h5.4c3.1,0,5.6,0.7,5.6,3.5c0,1.2-0.7,2.6-1.9,3v0.1c1.4,0.4,2.6,1.4,2.6,3.2c0,2.9-2.7,4.1-5.9,4.1h-5.8
						V348.1z M470.4,353.5c1.3,0,1.9-0.6,1.9-1.4s-0.6-1.2-1.9-1.2h-1.3v2.6H470.4z M470.7,359.1c1.6,0,2.3-0.5,2.3-1.5
						s-0.7-1.4-2.3-1.4h-1.6v2.9H470.7z"/>
					<path d="M482.6,357.2l-4.5-9.1h4.2l1.1,2.9c0.4,1,0.7,2,1.1,3.1h0.1c0.4-1.1,0.8-2.1,1.2-3.1l1.1-2.9h4.1l-4.5,9.1v4.8h-3.9
						V357.2z"/>
					<path d="M498.8,348.1h4.4c4.5,0,7.7,2,7.7,6.9s-3.1,7-7.4,7h-4.6V348.1z M503,359c2.2,0,3.9-0.8,3.9-4.1s-1.7-3.9-3.9-3.9h-0.2
						v8H503z"/>
					<path d="M514.4,348.1h9.6v3.1h-5.7v2.2h4.9v3.1h-4.9v2.5h5.9v3.1h-9.9V348.1z"/>
					<path d="M527.1,360.2l2.2-2.5c1.1,0.8,2.4,1.3,3.5,1.3c1.2,0,1.7-0.4,1.7-1c0-0.7-0.8-0.9-2-1.3l-1.9-0.7c-1.6-0.6-3-1.9-3-3.9
						c0-2.4,2.3-4.3,5.6-4.3c1.7,0,3.6,0.6,5,1.9l-2,2.3c-1-0.7-1.9-1-3-1c-1,0-1.6,0.3-1.6,0.9c0,0.7,0.8,0.9,2.2,1.4l1.8,0.7
						c1.9,0.7,2.9,1.9,2.9,3.8c0,2.4-2.1,4.4-5.8,4.4C530.9,362.2,528.7,361.6,527.1,360.2z"/>
					<path d="M541.9,348.1h3.9V362h-3.9V348.1z"/>
					<path d="M549.4,355.1c0-4.7,3.4-7.3,7.4-7.3c2.2,0,3.8,0.9,4.9,1.8l-2.1,2.3c-0.7-0.6-1.5-1-2.7-1c-2,0-3.5,1.5-3.5,4
						c0,2.6,1.2,4.1,3.9,4.1c0.4,0,0.9-0.1,1.1-0.3v-1.9h-2.2v-3h5.7v6.6c-1.1,0.9-2.9,1.7-5,1.7
						C552.7,362.2,549.4,359.9,549.4,355.1z"/>
					<path d="M565.8,348.1h4l3.3,6.2l1.4,3.1h0.1c-0.2-1.5-0.5-3.6-0.5-5.3v-4h3.8V362h-4l-3.3-6.2l-1.4-3.1h-0.1
						c0.2,1.6,0.5,3.6,0.5,5.3v4h-3.8V348.1z"/>
				</g>
			</g>
			<g>
				<path class="st5" d="M425.7,380.7c1.5,0.2,5.9-1.2,6.4-6.7c0-0.2,0-0.4,0-0.7c0-2.9-0.8-5-2.4-6.3c-1.6-1.3-3.5-2-5.8-2
					c-3.2,0-5.5,1.2-6.9,3.5c-1.1,1.9-1.8,3.7-2,5.4C414.3,381.5,421.5,380.2,425.7,380.7z"/>
			</g>
		</g>
		<g>
			<rect x="551.5" y="195.4" class="st5" width="6.9" height="4.2"/>
		</g>
	</g>
</g>
</svg>
